<svg id="Layer_1" data-name="Layer 1" xmlns="http://www.w3.org/2000/svg" viewBox="0 0 564.06 240.75"><defs><style>.cls-1{fill:#808285;}</style></defs><title>logo</title><path class="cls-1" d="M315.24,419v24.18H281.92V544.78H251.29V443.22H218V419Z" transform="translate(-217.97 -412.23)"/><path class="cls-1" d="M374.79,448.86a32.94,32.94,0,0,1,17.82-5.1v32.42H384.2q-11.47,0-17.2,4.92t-5.73,17.29v46.39H330.64v-100h30.63v17.91A41.85,41.85,0,0,1,374.79,448.86Z" transform="translate(-217.97 -412.23)"/><path class="cls-1" d="M407,467.58a43.4,43.4,0,0,1,15.85-17.91,41.39,41.39,0,0,1,22.39-6.27,38.49,38.49,0,0,1,18.54,4.3A31.68,31.68,0,0,1,476.09,459V444.83h30.63v100H476.09V530.63a33.1,33.1,0,0,1-12.45,11.29,38.46,38.46,0,0,1-18.54,4.3,40.61,40.61,0,0,1-22.21-6.36A43.88,43.88,0,0,1,407,521.76q-5.82-11.73-5.82-27.14T407,467.58Zm62.69,9.14a21.53,21.53,0,0,0-31-.09q-6.36,6.54-6.36,18t6.36,18.18a21.33,21.33,0,0,0,31,.09q6.36-6.63,6.36-18.09T469.73,476.71Z" transform="translate(-217.97 -412.23)"/><path class="cls-1" d="M573.89,516.12l21.67-71.29h32.78l-35.47,100h-38l-35.47-100h32.78Z" transform="translate(-217.97 -412.23)"/><path class="cls-1" d="M734.74,501.79H665.42q.71,9.5,5.91,14.51a18.06,18.06,0,0,0,13.08,5q11.46,0,15.94-9.67H733a44.78,44.78,0,0,1-9,17.73,45.26,45.26,0,0,1-16.39,12.36,52.6,52.6,0,0,1-22,4.48,53.59,53.59,0,0,1-26.15-6.27A44.57,44.57,0,0,1,641.42,522Q635,510.39,635,494.81t6.36-27.23a44,44,0,0,1,17.82-17.91q11.46-6.27,26.33-6.27a53.48,53.48,0,0,1,25.79,6.09,43.74,43.74,0,0,1,17.64,17.38q6.36,11.29,6.36,26.15A77,77,0,0,1,734.74,501.79Zm-30.81-15.58q0-8.6-5.37-13.44a19.34,19.34,0,0,0-13.44-4.84A19,19,0,0,0,672,472.68q-5.28,4.75-6.54,13.53Z" transform="translate(-217.97 -412.23)"/><path class="cls-1" d="M782,412.23V544.78H751.4V412.23Z" transform="translate(-217.97 -412.23)"/><path class="cls-1" d="M391.09,589.38v12.09H365.48V615h19.17v11.64H365.48v25.61H350.16V589.38Z" transform="translate(-217.97 -412.23)"/><path class="cls-1" d="M408.69,649.84a22.93,22.93,0,0,1-9.23-9,29,29,0,0,1,0-27.18,23.1,23.1,0,0,1,9.31-9,29.6,29.6,0,0,1,26.51,0,23.11,23.11,0,0,1,9.31,9,26.56,26.56,0,0,1,3.4,13.57,26.28,26.28,0,0,1-3.45,13.57,23.31,23.31,0,0,1-9.4,9A28.1,28.1,0,0,1,421.9,653,27.56,27.56,0,0,1,408.69,649.84Zm20.69-13.3q3.09-3.27,3.09-9.27t-3-9.27a10.08,10.08,0,0,0-14.82,0q-3,3.23-3,9.31t2.91,9.27a9.36,9.36,0,0,0,7.3,3.27A9.9,9.9,0,0,0,429.38,636.54Z" transform="translate(-217.97 -412.23)"/><path class="cls-1" d="M478.28,604.3a16.47,16.47,0,0,1,8.91-2.55V618H483q-5.73,0-8.6,2.46t-2.87,8.64v23.2H456.2v-50h15.32v9A20.89,20.89,0,0,1,478.28,604.3Z" transform="translate(-217.97 -412.23)"/><path class="cls-1" d="M535.47,589.38v12.09H509.85V615H529v11.64H509.85v25.61H494.54V589.38Z" transform="translate(-217.97 -412.23)"/><path class="cls-1" d="M565.61,604.3a16.47,16.47,0,0,1,8.91-2.55V618h-4.21q-5.73,0-8.6,2.46t-2.87,8.64v23.2H543.53v-50h15.32v9A20.89,20.89,0,0,1,565.61,604.3Z" transform="translate(-217.97 -412.23)"/><path class="cls-1" d="M628.7,630.76H594a10.8,10.8,0,0,0,3,7.25,9,9,0,0,0,6.54,2.51q5.73,0,8-4.84h16.3a22.37,22.37,0,0,1-4.52,8.87,22.62,22.62,0,0,1-8.19,6.18,26.3,26.3,0,0,1-11,2.24A26.78,26.78,0,0,1,591,649.84a22.28,22.28,0,0,1-9-9,27.64,27.64,0,0,1-3.23-13.61A28,28,0,0,1,582,613.65a22,22,0,0,1,8.91-9,29,29,0,0,1,26.06-.09,21.89,21.89,0,0,1,8.82,8.69A26.19,26.19,0,0,1,629,626.37,38.44,38.44,0,0,1,628.7,630.76ZM613.3,623a8.58,8.58,0,0,0-2.69-6.72,9.67,9.67,0,0,0-6.72-2.42,9.49,9.49,0,0,0-6.58,2.37A10.77,10.77,0,0,0,594,623Z" transform="translate(-217.97 -412.23)"/><path class="cls-1" d="M683.87,630.76H649.21a10.8,10.8,0,0,0,3,7.25,9,9,0,0,0,6.54,2.51q5.73,0,8-4.84H683a22.37,22.37,0,0,1-4.52,8.87,22.62,22.62,0,0,1-8.19,6.18,26.3,26.3,0,0,1-11,2.24,26.78,26.78,0,0,1-13.08-3.14,22.28,22.28,0,0,1-9-9A27.64,27.64,0,0,1,634,627.27a28,28,0,0,1,3.18-13.62,22,22,0,0,1,8.91-9,29,29,0,0,1,26.06-.09A21.89,21.89,0,0,1,681,613.3a26.19,26.19,0,0,1,3.18,13.08A38.44,38.44,0,0,1,683.87,630.76ZM668.47,623a8.58,8.58,0,0,0-2.69-6.72,9.67,9.67,0,0,0-6.72-2.42,9.49,9.49,0,0,0-6.58,2.37,10.77,10.77,0,0,0-3.27,6.76Z" transform="translate(-217.97 -412.23)"/></svg>